<svg width="42" height="38" viewBox="0 0 42 38" fill="none" xmlns="http://www.w3.org/2000/svg">
<path d="M41.3 31.6667H40.6V8.86668C40.6 7.46757 39.3464 6.33335 37.8 6.33335H31.5V1.90001C31.5 1.55026 31.1867 1.26668 30.8001 1.2666C30.7569 1.2666 30.7137 1.27024 30.6712 1.27745L26.4712 1.98995L25.7712 2.10901L19.5349 3.16668H15.4C14.6268 3.16668 14 3.73375 14 4.43335C12.61 4.43501 11.3528 5.18068 10.7968 6.33335H4.2C2.65361 6.33335 1.4 7.46757 1.4 8.86668V31.6667H0.7C0.313425 31.6667 0 31.9503 0 32.3V34.2C0 35.5991 1.25361 36.7333 2.8 36.7333H39.2C40.7464 36.7333 42 35.5991 42 34.2V32.3C42 31.9503 41.6866 31.6667 41.3 31.6667ZM20.3 4.32568L30.1 2.66318V12.54L20.3 10.8743V4.32568ZM20.3 12.16L21.7 12.3975V13.3H20.3V12.16ZM15.4 4.43335H18.9V10.7667H15.4V4.43335ZM16.8 15.8333V12.0333H18.9V15.8333H16.8ZM18.9 17.1V18.05C18.9 18.5747 18.4299 19 17.85 19C17.2701 19 16.8 18.5747 16.8 18.05V17.1H18.9ZM14 5.70001V9.50001C12.8402 9.50001 11.9 8.64937 11.9 7.60001C11.9 6.55066 12.8402 5.70001 14 5.70001ZM2.8 8.86668C2.8 8.16708 3.42676 7.60001 4.2 7.60001H10.5C10.5023 9.34801 12.068 10.7646 14 10.7667C14 11.4663 14.6268 12.0333 15.4 12.0333V18.05C15.4 19.2742 16.4969 20.2667 17.85 20.2667C19.2031 20.2667 20.3 19.2742 20.3 18.05V14.5667H22.4C22.7866 14.5667 23.1 14.2831 23.1 13.9333V12.6382L30.6712 13.9226C30.7137 13.9296 30.7568 13.9333 30.8 13.9333C31.1866 13.9333 31.5 13.6498 31.5 13.3V7.60001H37.8C38.5732 7.60001 39.2 8.16708 39.2 8.86668V31.6667H27.3C27.1145 31.6665 26.9364 31.7331 26.8051 31.8516L25.6102 32.9333H16.3898L15.1949 31.8516C15.0636 31.7331 14.8855 31.6665 14.7 31.6667H2.8V8.86668ZM40.6 34.2C40.6 34.8996 39.9732 35.4667 39.2 35.4667H2.8C2.02676 35.4667 1.4 34.8996 1.4 34.2V32.9333H14.4102L15.6051 34.0144C15.7363 34.1332 15.9143 34.2 16.1 34.2H25.9C26.0857 34.2 26.2637 34.1332 26.3949 34.0144L27.5898 32.9333H40.6V34.2Z" fill="#00B2FF"/>
<path d="M36.4 9.5H33.6V10.7667H35.7V27.8667H6.30002V10.7667H9.80003V9.5H5.60002C5.21345 9.5 4.90002 9.78357 4.90002 10.1333V28.5C4.90002 28.8498 5.21345 29.1333 5.60002 29.1333H36.4C36.7866 29.1333 37.1 28.8498 37.1 28.5V10.1333C37.1 9.78357 36.7866 9.5 36.4 9.5Z" fill="#00B2FF"/>
<path d="M21.6999 30.4H20.2999V31.6667H21.6999V30.4Z" fill="#00B2FF"/>
<path d="M11.1999 22.1667H9.79993V23.4333H11.1999V22.1667Z" fill="#00B2FF"/>
<path d="M33.6 22.1667H12.6V23.4333H33.6V22.1667Z" fill="#00B2FF"/>
<path d="M31.5 24.7H8.40002V25.9667H31.5V24.7Z" fill="#00B2FF"/>
</svg>
