<svg width="23" height="29" viewBox="0 0 23 29" fill="none" xmlns="http://www.w3.org/2000/svg">
<path d="M22.4996 23.0784C22.4144 23.0231 21.7728 22.5736 21.1304 21.214C19.9506 18.7171 19.703 15.1999 19.703 12.6889C19.703 12.678 19.7028 12.6672 19.7024 12.6563C19.6895 9.33777 17.7024 6.47708 14.8588 5.19355V3.23055C14.8588 1.44921 13.412 0 11.6336 0H11.3663C9.58787 0 8.14104 1.44921 8.14104 3.23055V5.19344C5.28794 6.4811 3.29685 9.35641 3.29685 12.6889C3.29685 15.1999 3.04922 18.7171 1.86945 21.214C1.22709 22.5736 0.585524 23.023 0.500223 23.0784C0.141008 23.2446 -0.036107 23.6287 0.0465317 24.0178C0.129963 24.4109 0.497335 24.6818 0.89852 24.6818H7.12599C7.16076 27.0687 9.10886 29 11.4999 29C13.891 29 15.8391 27.0687 15.8739 24.6818H22.1014C22.5025 24.6818 22.8699 24.4109 22.9534 24.0178C23.0359 23.6287 22.8588 23.2446 22.4996 23.0784ZM9.84032 3.23055C9.84032 2.38769 10.5249 1.70199 11.3663 1.70199H11.6336C12.4751 1.70199 13.1596 2.38769 13.1596 3.23055V4.64187C12.6234 4.53102 12.0682 4.47268 11.4997 4.47268C10.9314 4.47268 10.3764 4.53097 9.84038 4.6417V3.23055H9.84032ZM11.4999 27.298C10.0458 27.298 8.8597 26.1302 8.82521 24.6819H14.1746C14.1402 26.1302 12.9541 27.298 11.4999 27.298ZM14.921 22.9798C14.9209 22.9798 2.83478 22.9798 2.83478 22.9798C2.98176 22.7507 3.13135 22.4914 3.28003 22.1983C4.41874 19.9529 4.99613 16.7534 4.99613 12.6889C4.99613 9.09694 7.91363 6.17468 11.4997 6.17468C15.0857 6.17468 18.0032 9.09694 18.0032 12.6917C18.0032 12.7022 18.0034 12.7126 18.0038 12.7231C18.007 16.7713 18.5843 19.9592 19.7199 22.1983C19.8685 22.4914 20.0182 22.7507 20.1651 22.9798H14.921Z" fill="#989898"/>
</svg>
