<svg width="42" height="42" viewBox="0 0 42 42" fill="none" xmlns="http://www.w3.org/2000/svg">
<path d="M40.7695 0H35.8477C35.1681 0 34.6172 0.550922 34.6172 1.23047V2.46094H24.4798C23.9718 1.02884 22.6041 0 21 0C19.3959 0 18.0282 1.02884 17.5202 2.46094H7.38281V1.23047C7.38281 0.550922 6.83189 0 6.15234 0H1.23047C0.550922 0 0 0.550922 0 1.23047V6.15234C0 6.83189 0.550922 7.38281 1.23047 7.38281H6.15234C6.83189 7.38281 7.38281 6.83189 7.38281 6.15234V4.90547H12.4997C8.06047 7.71701 5.36197 12.4667 5.03737 17.5089C3.58788 18.0073 2.54297 19.3835 2.54297 21C2.54297 23.0354 4.19893 24.6914 6.23438 24.6914C8.26982 24.6914 9.92578 23.0354 9.92578 21C9.92578 19.4102 8.91557 18.052 7.5034 17.5334C7.9403 11.7381 12.1134 6.74674 17.6938 5.33055C18.2987 6.5456 19.5531 7.38281 21 7.38281C22.4469 7.38281 23.7013 6.5456 24.3062 5.33064C29.8867 6.74682 34.0597 11.7382 34.4966 17.5334C33.0844 18.052 32.0742 19.4102 32.0742 21C32.0742 23.0354 33.7302 24.6914 35.7656 24.6914C37.8011 24.6914 39.457 23.0354 39.457 21C39.457 19.3835 38.4121 18.0073 36.9626 17.5089C36.6374 12.4566 33.9308 7.72792 29.5003 4.92188H34.6172V6.15234C34.6172 6.83189 35.1681 7.38281 35.8477 7.38281H40.7695C41.4491 7.38281 42 6.83189 42 6.15234V1.23047C42 0.550922 41.4491 0 40.7695 0ZM4.92188 4.92188H2.46094V2.46094H4.92188V4.92188ZM6.23438 22.2305C5.55589 22.2305 5.00391 21.6785 5.00391 21C5.00391 20.3215 5.55589 19.7695 6.23438 19.7695C6.91286 19.7695 7.46484 20.3215 7.46484 21C7.46484 21.6785 6.91286 22.2305 6.23438 22.2305ZM21 4.92188C20.3215 4.92188 19.7695 4.36989 19.7695 3.69141C19.7695 3.01293 20.3215 2.46094 21 2.46094C21.6785 2.46094 22.2305 3.01293 22.2305 3.69141C22.2305 4.36989 21.6785 4.92188 21 4.92188ZM35.7656 19.7695C36.4441 19.7695 36.9961 20.3215 36.9961 21C36.9961 21.6785 36.4441 22.2305 35.7656 22.2305C35.0871 22.2305 34.5352 21.6785 34.5352 21C34.5352 20.3215 35.0871 19.7695 35.7656 19.7695ZM39.5391 4.92188H37.0781V2.46094H39.5391V4.92188Z" fill="#DA0083"/>
<path d="M31.8675 25.2393L22.0237 10.4737C22.0234 10.4732 22.023 10.4727 22.0227 10.4722C22.0192 10.4669 22.0153 10.4619 22.0117 10.4567C21.9948 10.4322 21.977 10.4086 21.9584 10.3855C21.4399 9.74127 20.4526 9.78475 19.9883 10.4567C19.9847 10.4619 19.9808 10.4669 19.9773 10.4722C19.977 10.4727 19.9766 10.4732 19.9762 10.4737L10.1325 25.2393C9.80707 25.7273 9.87147 26.3772 10.2862 26.7919C12.7412 29.2469 14.3037 32.456 14.7294 35.8893C14.5383 36.0438 14.3538 36.2091 14.1789 36.3881C13.0232 37.5704 12.3867 39.1264 12.3867 40.7695C12.3867 41.449 12.9376 42 13.6172 42H28.3828C29.0624 42 29.6133 41.449 29.6133 40.7695C29.6133 39.1264 28.9768 37.5704 27.8211 36.388C27.6462 36.2091 27.4618 36.0437 27.2706 35.8892C27.6962 32.4557 29.2587 29.2466 31.7137 26.7919C32.1285 26.3772 32.1929 25.7273 31.8675 25.2393ZM21 24.6914C21.6785 24.6914 22.2305 25.2434 22.2305 25.9218C22.2305 26.6003 21.6785 27.1523 21 27.1523C20.3215 27.1523 19.7695 26.6003 19.7695 25.9218C19.7695 25.2434 20.3215 24.6914 21 24.6914ZM15.0575 39.539C15.5694 38.0762 16.9572 36.9961 18.5391 36.9961H23.4609C25.0427 36.9961 26.4305 38.0762 26.9425 39.539H15.0575ZM24.9576 34.7224C24.4736 34.5989 23.9719 34.5351 23.4609 34.5351H18.5391C18.0281 34.5351 17.5264 34.5989 17.0424 34.7225C16.4665 31.406 14.971 28.3059 12.7234 25.7894L19.7695 15.2202V22.4422C18.3373 22.9501 17.3086 24.3178 17.3086 25.9219C17.3086 27.9574 18.9646 29.6133 21 29.6133C23.0354 29.6133 24.6914 27.9574 24.6914 25.9219C24.6914 24.3178 23.6626 22.9501 22.2305 22.4422V15.2202L29.2766 25.7894C27.029 28.3057 25.5334 31.4059 24.9576 34.7224Z" fill="#DA0083"/>
</svg>
