<svg xmlns="http://www.w3.org/2000/svg" width="509" height="242" viewBox="0 0 509 242">
  <defs>
    <style>
      .cls-1 {
        fill-rule: evenodd;
      }
    </style>
  </defs>
  <path id="лого" class="cls-1" d="M7590.26,507.581l-32.79,53.843V507.581H7520V642.964h37.47V587.388l32.79,53.844,41.35,0.083-40.84-66.908,40.84-66.909Zm437.52,133.411V507.581h-37.46V580.1l-44.61-72.518h-39.98V642.964h37.47V568.475l45.82,74.489H8029Zm-274.82,1.972V507.581H7715.5v50.976h-34.22V507.581h-37.46V642.964h37.46V591.988h34.22v50.976h37.46ZM7829.41,487l-17.52,40.126L7761.3,642.964h39.97l7.24-18.487h41.76l7.29,18.487h39.97Zm-17.9,129.837,17.82-45.482,9.16,23.249h-18.27ZM7550.9,708.3h17.38c-2.94,6.423-8.82,10.229-16.79,10.229-11.17,0-19.23-8.031-19.23-20.12s8.82-20.118,19.23-20.118a18.924,18.924,0,0,1,17.29,10.988h12.93c-3.78-13.1-16.03-21.469-30.22-21.469-17.38,0-31.49,12.426-31.49,30.6s13.44,30.6,31.49,30.6c18.89,0,31.32-12.425,31.48-30.6H7550.9V708.3Zm136-18.765c0-11.582-8.73-20.712-23.17-20.712H7643.5V728h12.08V710.751h4.29c8.23,0,13.68,5.919,14.69,15.64l0.17,1.606h11.75l-0.17-1.775c-0.84-9.045-4.53-15.471-10.32-19.1C7682.87,703.906,7686.9,697.481,7686.9,689.536Zm-23.42,11.073h-7.9V678.968h7.9c6.63,0,11.16,3.719,11.16,10.82S7670.11,700.609,7663.48,700.609Zm115.43-32.8c-17.63,0-31.48,12.679-31.48,30.6s13.85,30.6,31.48,30.6,31.48-12.68,31.48-30.6S7796.54,667.811,7778.91,667.811Zm0,50.719c-10.66,0-19.23-8.2-19.23-20.12s8.57-20.118,19.23-20.118,19.23,8.2,19.23,20.118S7789.57,718.53,7778.91,718.53Zm126.31-14.793c0,10.4-6.05,14.793-12.6,14.793s-12.59-4.4-12.59-14.793V668.824h-12.09v34.152c0,17.92,11.25,26.035,24.68,26.035s24.68-8.115,24.68-26.035V668.824h-12.08v34.913Zm98.97-34.913h-19.31V728h12.09V712.613h7.22c14.69,0,23.59-9.552,23.59-21.9S8018.88,668.824,8004.19,668.824Zm-1.01,33.644h-6.21v-23.5h6.21c7.9,0,12.34,4.312,12.34,11.75S8011.08,702.468,8003.18,702.468Z" transform="translate(-7520 -487)"/>
</svg>
