<?xml version="1.0" encoding="UTF-8"?>
<svg xmlns="http://www.w3.org/2000/svg" xmlns:xlink="http://www.w3.org/1999/xlink" width="46px" height="20px" viewBox="0 0 46 20" version="1.1">
<g id="surface1">
<path style=" stroke:none;fill-rule:nonzero;fill:rgb(0%,0%,0%);fill-opacity:1;" d="M 0.570312 2.761719 C 0.160156 2.304688 0.03125 1.65625 0.234375 1.074219 C 0.433594 0.492188 0.9375 0.0703125 1.539062 -0.03125 C 2.144531 -0.128906 2.753906 0.113281 3.125 0.601562 C 4.792969 2.644531 6.644531 4.527344 8.652344 6.222656 C 13.359375 10.117188 18.242188 12.085938 23.085938 12.082031 C 27.929688 12.078125 32.785156 10.117188 37.457031 6.179688 C 39.429688 4.496094 41.238281 2.632812 42.871094 0.613281 C 43.457031 -0.0859375 44.492188 -0.179688 45.195312 0.402344 C 45.898438 0.988281 46.003906 2.03125 45.4375 2.746094 C 44.28125 4.171875 43.039062 5.53125 41.726562 6.8125 L 43.921875 8.84375 C 44.40625 9.234375 44.636719 9.863281 44.519531 10.476562 C 44.402344 11.089844 43.953125 11.585938 43.359375 11.761719 C 42.765625 11.941406 42.121094 11.769531 41.691406 11.316406 L 39.246094 9.070312 C 37.691406 10.355469 36.023438 11.492188 34.257812 12.464844 L 35.640625 15.460938 C 35.972656 16.292969 35.597656 17.238281 34.792969 17.613281 C 33.988281 17.984375 33.03125 17.65625 32.621094 16.863281 L 31.234375 13.867188 C 29.144531 14.6875 26.949219 15.191406 24.710938 15.363281 L 24.710938 18.324219 C 24.671875 19.21875 23.9375 19.925781 23.050781 19.925781 C 22.160156 19.925781 21.429688 19.21875 21.386719 18.324219 L 21.386719 15.363281 C 19.160156 15.1875 16.964844 14.683594 14.882812 13.867188 L 13.484375 16.863281 C 13.25 17.433594 12.722656 17.828125 12.117188 17.886719 C 11.507812 17.949219 10.914062 17.671875 10.570312 17.160156 C 10.230469 16.648438 10.191406 15.992188 10.472656 15.441406 L 11.863281 12.445312 C 10.097656 11.476562 8.425781 10.34375 6.867188 9.070312 L 4.433594 11.316406 C 4.003906 11.769531 3.363281 11.941406 2.765625 11.761719 C 2.171875 11.585938 1.726562 11.089844 1.609375 10.476562 C 1.488281 9.863281 1.71875 9.234375 2.207031 8.84375 L 4.371094 6.84375 C 3.027344 5.558594 1.761719 4.195312 0.570312 2.761719 Z M 0.570312 2.761719 "/>
</g>
</svg>
