<svg width="29" height="29" viewBox="0 0 29 29" fill="none" xmlns="http://www.w3.org/2000/svg">
<g clip-path="url(#clip0_20_361)">
<path d="M24.4022 4.90536C21.6177 1.98667 17.3385 1.53865 14.1729 3.29716C13.8994 3.44907 13.8009 3.79402 13.9528 4.06748C14.1047 4.34105 14.4497 4.43943 14.7231 4.28758C17.6185 2.67893 21.2615 3.25468 23.5801 5.68496C25.9723 8.22308 26.2417 12.0064 24.391 14.8113C21.8417 18.6834 16.3357 19.2669 13.0346 15.9651C10.8101 13.7415 10.1657 10.1554 11.7725 7.23719C11.9233 6.96305 11.8233 6.61857 11.5492 6.46779C11.2751 6.31713 10.9307 6.41698 10.7798 6.69107C10.7451 6.75422 10.6834 6.87192 10.6238 6.99262H10.6239C8.97633 10.3511 9.72591 14.2597 12.2335 16.7663C16.0368 20.5704 22.3897 19.9115 25.337 15.4348C27.4507 12.2313 27.1914 7.86455 24.4022 4.90536Z" fill="#989898"/>
<path d="M25.853 3.1473C21.6565 -1.04869 14.8279 -1.04886 10.6311 3.14735C6.8573 6.92176 6.45102 12.8394 9.52428 17.0728L7.75896 18.8377C7.14005 18.5415 6.35739 18.6371 5.8244 19.1701L0.830862 24.1642C-0.276291 25.2706 -0.277197 27.0624 0.830579 28.1694C1.93728 29.2769 3.72899 29.2773 4.83591 28.1695L9.83019 23.1759C10.363 22.643 10.4589 21.8604 10.1626 21.2414L11.9276 19.4759C16.162 22.5498 22.0792 22.1425 25.853 18.3692C30.0492 14.1725 30.0492 7.34402 25.853 3.1473ZM9.02901 22.3748L4.03462 27.3685C3.37085 28.0328 2.29638 28.0334 1.6317 27.3683C0.967309 26.7044 0.966912 25.6299 1.63182 24.9655L6.62547 19.9712C6.8462 19.7504 7.20558 19.7503 7.42631 19.9712L9.02896 21.5739C9.24985 21.7947 9.24985 22.154 9.02901 22.3748ZM9.42957 20.3721L8.62822 19.5708L10.2414 17.958C10.3679 18.0984 10.4979 18.236 10.6311 18.3692C10.7643 18.5023 10.9018 18.6324 11.0424 18.759L9.42957 20.3721ZM25.0518 17.568C21.2979 21.3214 15.217 21.3534 11.4322 17.568C7.6518 13.7881 7.67428 7.70697 11.4322 3.94848C15.1868 0.194343 21.2966 0.19372 25.0518 3.94848C28.8062 7.7034 28.8062 13.8132 25.0518 17.568Z" fill="#989898"/>
<path d="M13.0483 4.76393C13.0443 4.75883 13.0398 4.7543 13.0347 4.7492C12.8132 4.52825 12.4546 4.52825 12.2331 4.7492C12.0121 4.97072 12.0121 5.32932 12.2331 5.55078C12.2382 5.55588 12.2427 5.56041 12.2478 5.56494C12.4705 5.77173 12.8183 5.76664 13.0347 5.55078C13.2505 5.33436 13.2556 4.98653 13.0483 4.76393Z" fill="#989898"/>
</g>
<defs>
<clipPath id="clip0_20_361">
<rect width="29" height="29" fill="white"/>
</clipPath>
</defs>
</svg>
