<?xml version="1.0" encoding="UTF-8"?>
<svg xmlns="http://www.w3.org/2000/svg" xmlns:xlink="http://www.w3.org/1999/xlink" width="23px" height="30px" viewBox="0 0 23 29" version="1.1">
<g id="surface1">
<path style=" stroke:none;fill-rule:nonzero;fill:rgb(0%,0%,0%);fill-opacity:1;" d="M 15.003906 26.03125 L 20.136719 20.703125 L 15.003906 20.703125 Z M 4.535156 14.617188 L 18.464844 14.617188 L 18.464844 15.921875 L 4.535156 15.921875 Z M 4.535156 17.933594 L 11.054688 17.933594 L 11.054688 19.238281 L 4.535156 19.238281 Z M 4.535156 21.246094 L 9.128906 21.246094 L 9.128906 22.550781 L 4.535156 22.550781 Z M 22.992188 20.023438 L 14.808594 28.6875 C 14.648438 28.886719 14.40625 29 14.148438 29 L 1.546875 29 C 0.695312 29 0.0078125 28.320312 0.0078125 27.484375 L 0.0078125 1.515625 C 0.0078125 0.679688 0.695312 0 1.546875 0 L 21.453125 0 C 22.304688 0 22.992188 0.679688 22.992188 1.515625 Z M 21.492188 19.222656 L 21.492188 1.480469 L 1.507812 1.480469 L 1.507812 27.527344 L 13.503906 27.527344 L 13.503906 20.074219 C 13.503906 19.609375 13.886719 19.222656 14.363281 19.222656 Z M 21.492188 19.222656 "/>
<path style=" stroke:none;fill-rule:evenodd;fill:rgb(0%,66.27451%,7.058824%);fill-opacity:1;" d="M 11.5 3.648438 C 13.917969 3.648438 15.878906 5.585938 15.878906 7.976562 C 15.878906 10.363281 13.917969 12.300781 11.5 12.300781 C 9.082031 12.300781 7.121094 10.363281 7.121094 7.976562 C 7.121094 5.585938 9.082031 3.648438 11.5 3.648438 Z M 10.140625 7.289062 L 10.917969 8.011719 L 12.75 6.175781 C 12.902344 6.023438 13 5.902344 13.1875 6.089844 L 13.792969 6.707031 C 13.996094 6.902344 13.984375 7.015625 13.796875 7.199219 L 11.265625 9.65625 C 10.867188 10.042969 10.9375 10.066406 10.53125 9.671875 L 9.117188 8.28125 C 9.03125 8.191406 9.042969 8.097656 9.132812 8.011719 L 9.839844 7.285156 C 9.945312 7.175781 10.03125 7.183594 10.140625 7.289062 Z M 10.140625 7.289062 "/>
</g>
</svg>
