<svg width="29" height="29" viewBox="0 0 29 29" fill="none" xmlns="http://www.w3.org/2000/svg">
<path d="M14.2933 13.9694C16.2124 13.9694 17.874 13.2811 19.2321 11.923C20.5897 10.5652 21.2782 8.90384 21.2782 6.98448C21.2782 5.06579 20.5899 3.40418 19.2319 2.04592C17.8738 0.688315 16.2122 0 14.2933 0C12.3739 0 10.7125 0.688315 9.35471 2.04614C7.99689 3.40396 7.30835 5.06557 7.30835 6.98448C7.30835 8.90384 7.99689 10.5654 9.35471 11.9233C10.713 13.2809 12.3746 13.9694 14.2933 13.9694ZM10.5566 3.24776C11.5984 2.20588 12.8206 1.69944 14.2933 1.69944C15.7657 1.69944 16.9881 2.20588 18.0302 3.24776C19.0721 4.28986 19.5788 5.51227 19.5788 6.98448C19.5788 8.45714 19.0721 9.67933 18.0302 10.7214C16.9881 11.7635 15.7657 12.27 14.2933 12.27C12.8211 12.27 11.5989 11.7633 10.5566 10.7214C9.51446 9.67955 9.00779 8.45714 9.00779 6.98448C9.00779 5.51227 9.51446 4.28986 10.5566 3.24776Z" fill="#989898"/>
<path d="M26.5151 22.2995C26.476 21.7345 26.3967 21.1181 26.2801 20.4671C26.1624 19.8113 26.0109 19.1914 25.8295 18.6248C25.6418 18.0391 25.3872 17.4608 25.0719 16.9065C24.7451 16.3313 24.361 15.8304 23.93 15.4182C23.4793 14.9869 22.9275 14.6402 22.2894 14.3874C21.6535 14.1358 20.9488 14.0084 20.195 14.0084C19.899 14.0084 19.6127 14.1298 19.0598 14.4898C18.7195 14.7117 18.3215 14.9684 17.8772 15.2522C17.4973 15.4943 16.9827 15.7211 16.347 15.9264C15.7268 16.1271 15.0972 16.2288 14.4754 16.2288C13.8542 16.2288 13.2245 16.1271 12.6039 15.9264C11.9689 15.7213 11.454 15.4945 11.0748 15.2525C10.6347 14.9712 10.2365 14.7146 9.89109 14.4896C9.33862 14.1296 9.05232 14.0081 8.75629 14.0081C8.00226 14.0081 7.29779 14.1358 6.66213 14.3876C6.02448 14.64 5.47246 14.9867 5.02132 15.4184C4.59032 15.8308 4.20623 16.3315 3.87966 16.9065C3.56482 17.4608 3.30994 18.0389 3.12231 18.625C2.94111 19.1916 2.78955 19.8113 2.67184 20.4671C2.55502 21.1172 2.47604 21.7338 2.43687 22.3002C2.39838 22.854 2.37891 23.4304 2.37891 24.0127C2.37891 25.5265 2.86013 26.752 3.80908 27.6558C4.74631 28.5477 5.98621 28.9999 7.49448 28.9999H21.4582C22.966 28.9999 24.2059 28.5477 25.1433 27.6558C26.0925 26.7527 26.5737 25.5267 26.5737 24.0125C26.5735 23.4282 26.5538 22.8518 26.5151 22.2995ZM23.9716 26.4246C23.3523 27.014 22.5301 27.3005 21.4579 27.3005H7.49448C6.42207 27.3005 5.5999 27.014 4.98083 26.4248C4.3735 25.8467 4.07835 25.0575 4.07835 24.0127C4.07835 23.4693 4.09627 22.9328 4.13211 22.4177C4.16707 21.9124 4.23853 21.3572 4.34451 20.7674C4.44917 20.1848 4.58236 19.6381 4.74078 19.1432C4.89278 18.6686 5.10009 18.1986 5.35719 17.746C5.60255 17.3145 5.88487 16.9444 6.1964 16.6461C6.48779 16.3671 6.85506 16.1388 7.28783 15.9675C7.68808 15.8091 8.13789 15.7224 8.62619 15.7093C8.68571 15.741 8.79169 15.8014 8.96338 15.9133C9.31274 16.141 9.71542 16.4007 10.1606 16.6851C10.6624 17.005 11.3089 17.2939 12.0813 17.5433C12.8709 17.7986 13.6763 17.9283 14.4757 17.9283C15.275 17.9283 16.0806 17.7986 16.8698 17.5435C17.6429 17.2937 18.2892 17.005 18.7916 16.6846C19.2472 16.3934 19.6386 16.1412 19.9879 15.9133C20.1596 15.8016 20.2656 15.741 20.3251 15.7093C20.8137 15.7224 21.2635 15.8091 21.6639 15.9675C22.0965 16.1388 22.4638 16.3673 22.7551 16.6461C23.0667 16.9441 23.349 17.3143 23.5944 17.7462C23.8517 18.1986 24.0592 18.6688 24.211 19.1429C24.3696 19.6386 24.503 20.185 24.6075 20.7672C24.7132 21.3581 24.7849 21.9135 24.8199 22.4179V22.4184C24.8559 22.9314 24.8741 23.4678 24.8743 24.0127C24.8741 25.0577 24.5789 25.8467 23.9716 26.4246Z" fill="#989898"/>
</svg>
