<svg width="42" height="38" viewBox="0 0 42 38" fill="none" xmlns="http://www.w3.org/2000/svg">
<path d="M0 1.17599V32.3671H13.4804V34.5973H11.0165V36.8239H30.9834V34.5973H28.5196V32.3671H42V1.17599H0ZM26.0585 34.5973H15.9415V32.3671H26.0585V34.5973H26.0585ZM39.539 30.1405H2.46102V25.6818H39.5389V30.1405H39.539ZM39.539 23.4551H2.46102V3.40271H39.5389V23.4551H39.539Z" fill="#FFC700"/>
<path d="M16.7297 9.40443L14.9895 7.82996L8.80115 13.4289L14.9895 19.0279L16.7297 17.4534L12.2816 13.4289L16.7297 9.40443Z" fill="#FFC700"/>
<path d="M27.0105 7.82996L25.2703 9.40443L29.7184 13.4289L25.2703 17.4534L27.0105 19.0279L33.1987 13.4289L27.0105 7.82996Z" fill="#FFC700"/>
<path d="M21.2216 6.71499L18.3646 19.7095L20.7785 20.1439L23.6354 7.14942L21.2216 6.71499Z" fill="#FFC700"/>
</svg>
