<svg width="29" height="29" viewBox="0 0 29 29" fill="none" xmlns="http://www.w3.org/2000/svg">
<path d="M28.1504 6.85352H21.6934V1.8125C21.6934 1.34329 21.313 0.962891 20.8438 0.962891H0.849609C0.380398 0.962891 0 1.34329 0 1.8125V23.7891C0 26.1314 1.90567 28.0371 4.24805 28.0371H24.752C27.0943 28.0371 29 26.1314 29 23.7891V7.70312C29 7.23391 28.6196 6.85352 28.1504 6.85352ZM4.24805 26.3379C2.84262 26.3379 1.69922 25.1945 1.69922 23.7891V2.66211H19.9941C19.9941 25.1182 19.9834 23.8697 20.0136 24.1899C20.0875 24.9776 20.3812 25.7203 20.8457 26.3379H4.24805ZM27.3008 23.7891C27.3008 25.1945 26.1574 26.3379 24.752 26.3379C24.5613 26.3379 24.4294 26.3379 24.2422 26.3379C22.8368 26.3379 21.6934 25.1945 21.6934 23.7891V8.55273H27.3008V23.7891Z" fill="#FFC700"/>
<path d="M17.2188 5.04102H4.53125C4.06204 5.04102 3.68164 5.42141 3.68164 5.89062C3.68164 6.35984 4.06204 6.74023 4.53125 6.74023H17.2188C17.688 6.74023 18.0684 6.35984 18.0684 5.89062C18.0684 5.42141 17.688 5.04102 17.2188 5.04102Z" fill="#FFC700"/>
<path d="M17.2188 8.66602H4.53125C4.06204 8.66602 3.68164 9.04641 3.68164 9.51562C3.68164 9.98484 4.06204 10.3652 4.53125 10.3652H17.2188C17.688 10.3652 18.0684 9.98484 18.0684 9.51562C18.0684 9.04641 17.688 8.66602 17.2188 8.66602Z" fill="#FFC700"/>
<path d="M17.2188 22.2598H4.53125C4.06204 22.2598 3.68164 22.6402 3.68164 23.1094C3.68164 23.5786 4.06204 23.959 4.53125 23.959H17.2188C17.688 23.959 18.0684 23.5786 18.0684 23.1094C18.0684 22.6402 17.688 22.2598 17.2188 22.2598Z" fill="#FFC700"/>
<path d="M17.2188 12.291H10.875C10.4058 12.291 10.0254 12.6714 10.0254 13.1406V19.4844C10.0254 19.9536 10.4058 20.334 10.875 20.334H17.2188C17.688 20.334 18.0684 19.9536 18.0684 19.4844V13.1406C18.0684 12.6714 17.688 12.291 17.2188 12.291ZM16.3691 18.6348H11.7246V13.9902H16.3691V18.6348Z" fill="#FFC700"/>
<path d="M4.53125 15.3496H7.25C7.71921 15.3496 8.09961 14.9692 8.09961 14.5C8.09961 14.0308 7.71921 13.6504 7.25 13.6504H4.53125C4.06204 13.6504 3.68164 14.0308 3.68164 14.5C3.68164 14.9692 4.06204 15.3496 4.53125 15.3496Z" fill="#FFC700"/>
<path d="M4.53125 18.9746H7.25C7.71921 18.9746 8.09961 18.5942 8.09961 18.125C8.09961 17.6558 7.71921 17.2754 7.25 17.2754H4.53125C4.06204 17.2754 3.68164 17.6558 3.68164 18.125C3.68164 18.5942 4.06204 18.9746 4.53125 18.9746Z" fill="#FFC700"/>
</svg>
